<?xml version="1.0" encoding="UTF-8"?>
<svg id="Layer_1" data-name="Layer 1" xmlns="http://www.w3.org/2000/svg" version="1.1" viewBox="0 0 1096 204">
  <defs>
    <style>
      .cls-1 {
        fill: #fff;
        stroke-width: 0px;
      }
    </style>
  </defs>
  <g>
    <path class="cls-1" d="M269.1,48.2h22.9l34.5,84.8,33.9-84.8h22.5v107.8h-17.1v-79.3l-32.3,79.3h-14.9l-32.3-79.3v79.3h-17.1V48.2Z"/>
    <path class="cls-1" d="M419.6,48.2v62.5c0,10.2,2,17.8,6,22.9,4,5.1,10.2,7.6,18.6,7.6s14.8-2.5,18.9-7.6c4.1-5.1,6.1-12.7,6.1-22.9v-62.5h17.7v61.6c0,15.4-3.6,27.1-10.9,35.1-7.2,8-17.8,12-31.8,12s-24.4-4-31.6-12c-7.2-8-10.8-19.7-10.8-35.1v-61.6h17.7Z"/>
    <path class="cls-1" d="M506,156V48.2h17.7v92.1h46.3v15.7h-64.1Z"/>
    <path class="cls-1" d="M561.7,48.2h84.2v15.7h-33.3v92.1h-17.7V63.9h-33.3v-15.7Z"/>
    <path class="cls-1" d="M659.4,48.2h17.7v107.8h-17.7V48.2Z"/>
    <path class="cls-1" d="M710.2,120.9c.5,6.4,3.1,11.5,7.8,15.3,4.7,3.8,10.8,5.8,18.2,5.8s11.9-1.4,15.9-4.2c4.1-2.8,6.1-6.7,6.1-11.8s-1.1-6.4-3.3-8.5c-2.2-2.1-5.2-3.7-9-4.9-3.8-1.1-9.1-2.3-16-3.5-7-1.2-13-2.8-17.9-4.8-5-2-9-5.1-12.2-9.2-3.1-4.1-4.7-9.5-4.7-16.2s1.6-11.6,4.9-16.5c3.2-4.8,7.7-8.6,13.5-11.2,5.8-2.7,12.4-4,19.9-4s14.6,1.4,20.6,4.3c6.1,2.9,10.8,6.8,14.3,11.9,3.5,5,5.4,10.8,5.7,17.2h-17.4c-.6-5.5-3-10-7.2-13.4-4.2-3.4-9.5-5.1-16-5.1s-11.3,1.4-15,4.1c-3.7,2.7-5.6,6.5-5.6,11.5s1.1,6.3,3.3,8.3c2.2,2.1,5.2,3.6,8.9,4.6,3.7,1,9,2.2,15.9,3.4,7,1.2,13,2.9,18,4.9,5,2.1,9.1,5.1,12.3,9.1,3.2,4,4.8,9.3,4.8,15.9s-1.7,12.1-5.1,17.1c-3.4,5-8.1,9-14.2,11.8-6.1,2.8-12.9,4.2-20.6,4.2s-16-1.5-22.5-4.6c-6.5-3.1-11.5-7.4-15.2-12.9-3.6-5.5-5.5-11.8-5.6-18.9l17.4.3Z"/>
    <path class="cls-1" d="M775.4,48h20.8l28.3,49.4,29.1-49.4h19.9l-40.2,68.1v39.9h-17.7v-39.9l-40.2-68.1Z"/>
    <path class="cls-1" d="M884.1,156V48.2h16.2l52.5,76.4V48.2h17.4v107.8h-16.2l-52.5-76.4v76.4h-17.4Z"/>
    <path class="cls-1" d="M1096,140.4v15.6h-10.5c-4.2,0-7.5-.6-9.9-1.8-2.4-1.2-4.6-3.1-6.7-5.8l-.5-.6c-8.6,6.1-18.7,9.1-30.3,9.1s-19.2-2.4-27.2-7.1c-8-4.7-14.1-11.2-18.6-19.6-4.4-8.3-6.6-17.7-6.6-28.2s2.2-19.9,6.6-28.2c4.4-8.3,10.6-14.8,18.6-19.6,8-4.7,17-7.1,27.2-7.1s19.2,2.4,27.2,7.1c8,4.7,14.1,11.2,18.6,19.6,4.4,8.3,6.6,17.7,6.6,28.2s-1,13.2-2.9,19.2c-2,6-4.7,11.4-8.3,16.2,1.9,2,4.4,2.9,7.4,2.9h9.4ZM1058.3,134.7l-2.3-3.1c-1.3-1.8-2.7-3.2-4-4-1.3-.8-2.9-1.2-4.6-1.2h-9.5v-15.4h11.5c3.8,0,6.8.6,9,1.8,2.2,1.2,4.3,3.1,6.2,5.8l3.2,4.2c3-6,4.5-12.8,4.5-20.6s-1.4-14.2-4.3-20.2c-2.9-6-6.9-10.7-12.1-14-5.2-3.3-11.1-5-17.8-5s-12.6,1.7-17.8,5c-5.2,3.3-9.2,8-12.1,14-2.9,6-4.3,12.8-4.3,20.2s1.4,14.2,4.3,20.2c2.9,6,6.9,10.7,12.1,14,5.2,3.3,11.1,5,17.8,5s14.4-2.2,20.2-6.6Z"/>
  </g>
  <path class="cls-1" d="M108.7.2C47.2-3.7-3.7,47.2.2,108.7c3.2,50.8,44.3,91.9,95.1,95.1,61.5,3.9,112.4-47,108.5-108.5C200.5,44.5,159.5,3.5,108.7.2ZM81.9,186.2c-5.2-1.2-10.2-2.9-14.9-5.1-2.6-1.2-3.2-4.5-1.2-6.6l59.1-59.6c7.1-7.2,7.1-18.9,0-26.1l-59.1-59.6c-2-2-1.4-5.4,1.2-6.6,4.8-2.1,9.8-3.8,14.9-5.1s2.8.1,3.8,1.1l54.5,55c15.3,15.5,15.3,40.8,0,56.3l-54.6,55c-1,1-2.4,1.4-3.8,1.1ZM16.3,89.7c1.1-7.7,3.2-15.1,6.2-22s4.6-3.3,6.6-1.2l20.6,20.9c2.5,2.6.7,6.9-2.9,6.9h-26.6c-2.4,0-4.4-2.2-4-4.6ZM49.7,116.6l-20.7,20.9c-2,2-5.5,1.4-6.6-1.2-3-6.9-5.1-14.3-6.2-22s1.6-4.6,4-4.6h26.6c3.6,0,5.4,4.3,2.9,6.9ZM36.1,152.3l46.9-47.5c1.6-1.6,1.6-4.1,0-5.7l-46.9-47.5c-1.5-1.5-1.6-3.9-.2-5.5,3-3.5,6.3-6.8,9.8-9.9s4-1.3,5.5.2l62.8,63.2c1.2,1.2,1.2,3.2,0,4.4l-62.8,63.3c-1.5,1.5-3.9,1.6-5.5.2-3.5-3-6.8-6.3-9.8-9.9s-1.2-4,.2-5.5ZM112.2,188c-2.9.3-4.6-3.1-2.5-5.2l41.5-41.8c21.2-21.5,21.2-56.5,0-78l-41.5-41.8c-2-2-.3-5.5,2.5-5.2,43,5.1,76.4,41.7,76.4,86s-33.4,80.9-76.4,86Z"/>
  <metadata>
    <sfw xmlns="http://ns.adobe.com/SaveForWeb/1.0/">
      <slices/>
      <sliceSourceBounds x="-3156.93" y="-9832" width="8931.51" height="16383" bottomLeftOrigin="true"/>
    </sfw>
  </metadata>
</svg>